<?xml version="1.0" encoding="UTF-8"?>
<svg width="347px" height="60px" viewBox="0 0 347 60" version="1.1" xmlns="http://www.w3.org/2000/svg" xmlns:xlink="http://www.w3.org/1999/xlink">
    <!-- Generator: sketchtool 50.2 (55047) - http://www.bohemiancoding.com/sketch -->
    <title>2087C12E-41CD-42A1-A094-92EA1240F1D7</title>
    <desc>Created with sketchtool.</desc>
    <defs>
        <polygon id="path-1" points="320.504625 5.1138 342.291 5.1138 342.291 30.68505 320.504625 30.68505"></polygon>
    </defs>
    <g id="Symbols" stroke="none" stroke-width="1" fill="none" fill-rule="evenodd">
        <g id="logo">
            <g transform="translate(-1.000000, 0.000000)" id="Logotype">
                <g transform="translate(4.000000, 10.000000)">
                    <g transform="translate(0.500000, 0.500000)">
                        <path d="M146.8581,8.946 C149.2266,11.4195 150.4461,14.52 150.4461,18.1785 C150.4461,21.83625 149.2266,24.93675 146.8581,27.41025 C144.4191,29.95275 141.24885,31.24275 137.48685,31.24275 C133.72335,31.24275 130.5531,29.95275 128.11485,27.41025 C125.74635,24.93675 124.5261,21.83625 124.5261,18.1785 C124.5261,14.52 125.74635,11.4195 128.11485,8.946 C130.5531,6.40275 133.72335,5.11425 137.48685,5.11425 C141.24885,5.11425 144.4191,6.40275 146.8581,8.946" id="Fill-1" fill="#01C3C5"></path>
                        <path d="M11.269275,6.47595 L11.269275,9.1932 C11.269275,9.71595 10.886775,10.20345 10.364025,10.37745 C10.085025,10.4472 9.842025,10.5177 9.597525,10.62195 C8.657775,11.0397 7.890525,11.5977 7.228275,12.32895 C5.905275,13.8267 5.243775,15.7422 5.243775,18.1812 C5.243775,20.6202 5.905275,22.53645 7.228275,24.0342 C8.065275,24.97545 9.074775,25.6017 10.364025,25.98495 C10.886775,26.12445 11.269275,26.61195 11.269275,27.1347 L11.269275,29.88645 C11.269275,30.2697 11.096025,30.61845 10.817025,30.82695 C10.572525,31.03695 10.294275,31.1067 10.015275,31.1067 L9.772275,31.1067 C7.298025,30.58395 5.172525,29.36445 3.466275,27.4827 C1.271025,25.00995 0.156525,21.9087 0.156525,18.1812 C0.156525,14.48895 1.271025,11.3532 3.466275,8.8797 C5.172525,6.9987 7.298025,5.7792 9.772275,5.2917 C10.154775,5.1867 10.503525,5.2917 10.817025,5.53545 C11.096025,5.74395 11.269275,6.0927 11.269275,6.47595" id="Fill-3" fill="#01C3C5"></path>
                        <path d="M13.5,9.01918234 L13.5,6.47593234 C13.5,6.12793234 13.64025,5.77918234 13.91925,5.56993234 C14.19675,5.32618234 14.54625,5.22193234 14.89425,5.25643234 C16.8795,5.56993234 18.65625,6.26743234 20.22375,7.38193234 C22.20975,8.80993234 23.67375,10.7614323 24.50925,13.1996823 C24.648,13.5829323 24.57825,14.0014323 24.36975,14.3149323 C24.126,14.6629323 23.74275,14.8369323 23.3595,14.8369323 L20.57325,14.8369323 C20.085,14.8369323 19.632,14.5586823 19.42275,14.1056823 C18.90075,12.8861823 18.135,11.9456823 17.08875,11.2144323 C16.32225,10.7261823 15.486,10.3781823 14.54625,10.2379323 C13.91925,10.1344323 13.5,9.64618234 13.5,9.01918234" id="Fill-5" fill="#01C3C5"></path>
                        <path d="M24.36975,22.27275 C24.57825,22.58625 24.648,23.004 24.50925,23.388 C23.67375,25.82625 22.20975,27.777 20.22375,29.205 C18.65625,30.3195 16.8795,31.017 14.89425,31.3305 L14.7195,31.3305 C14.40675,31.3305 14.127,31.22625 13.9185,31.017 C13.64025,30.80775 13.5,30.45975 13.5,30.11175 L13.5,27.56775 C13.5,26.94075 13.9185,26.45325 14.51025,26.349 C15.486,26.2095 16.32225,25.896 17.08875,25.37325 C18.135,24.642 18.90075,23.7015 19.42275,22.48125 C19.632,22.029 20.085,21.75 20.57325,21.75 L23.3595,21.75 C23.74275,21.75 24.126,21.924 24.36975,22.27275" id="Fill-7" fill="#01C3C5"></path>
                        <path d="M34.249725,17.1675 L41.043225,17.1675 C43.064475,17.1675 44.387475,16.61025 45.119475,15.4605 C45.327975,15.07725 45.467475,14.52 45.467475,13.8585 C45.467475,12.70875 45.119475,11.90775 44.387475,11.28 C43.586475,10.6185 42.541725,10.305 41.182725,10.305 L34.249725,10.305 L34.249725,17.1675 Z M50.797725,29.082 C51.042225,29.466 51.042225,29.95275 50.832975,30.33675 C50.622975,30.72 50.205975,30.96375 49.788225,30.96375 L46.651725,30.96375 C46.233975,30.96375 45.851475,30.7545 45.642225,30.4065 L40.416225,22.08 L34.249725,22.08 L34.249725,29.745 C34.249725,30.4065 33.692475,30.96375 33.030975,30.96375 L30.417975,30.96375 C29.755725,30.96375 29.198475,30.4065 29.198475,29.745 L29.198475,6.612 C29.198475,5.94975 29.755725,5.3925 30.417975,5.3925 L41.496225,5.3925 C44.143725,5.3925 46.338975,6.159 47.976225,7.65675 C49.648725,9.18975 50.484225,11.2455 50.484225,13.8585 C50.484225,17.20275 48.986475,19.641 46.164225,20.8605 C45.990225,20.96475 45.781725,21.0345 45.607725,21.105 L50.797725,29.082 Z" id="Fill-9" fill="#01C3C5"></path>
                        <path d="M76.511925,6.054825 C76.720425,6.438075 76.685925,6.925575 76.441425,7.308825 L66.966675,20.964825 L66.966675,29.744325 C66.966675,30.406575 66.407925,30.963825 65.746425,30.963825 L63.134175,30.963825 C62.471925,30.963825 61.913925,30.406575 61.913925,29.744325 L61.913925,20.964825 L52.403175,7.308825 C52.160175,6.925575 52.124925,6.438075 52.334175,6.054825 C52.544175,5.636325 52.961175,5.392575 53.414175,5.392575 L56.585175,5.392575 C57.002925,5.392575 57.350925,5.601825 57.594675,5.915325 L64.423425,15.739575 L71.250675,5.915325 C71.495925,5.601825 71.843175,5.392575 72.261675,5.392575 L75.432675,5.392575 C75.884925,5.392575 76.302675,5.636325 76.511925,6.054825" id="Fill-11" fill="#01C3C5"></path>
                        <path d="M84.52755,17.829975 L90.9378,17.829975 C92.43555,17.829975 93.5148,17.516475 94.21305,16.854225 C94.9098,16.192725 95.22255,15.286725 95.22255,14.067225 C95.22255,12.847725 94.9098,11.942475 94.21305,11.315475 C93.5148,10.653225 92.4003,10.305225 90.9378,10.305225 L84.52755,10.305225 L84.52755,17.829975 Z M97.7658,7.761975 C99.4383,9.329475 100.2738,11.454975 100.2738,14.067225 C100.2738,16.680225 99.4383,18.804975 97.7658,20.373225 C96.09405,21.940725 93.8643,22.706475 91.1118,22.706475 L84.52755,22.706475 L84.52755,29.744475 C84.52755,30.406725 83.9703,30.963975 83.30805,30.963975 L80.69505,30.963975 C80.03355,30.963975 79.4763,30.406725 79.4763,29.744475 L79.4763,6.612225 C79.4763,5.949975 80.03355,5.392725 80.69505,5.392725 L91.1118,5.392725 C93.8643,5.392725 96.09405,6.193725 97.7658,7.761975 Z" id="Fill-13" fill="#01C3C5"></path>
                        <path d="M122.67795,6.61215 L122.67795,9.1209 C122.67795,9.7824 122.15595,10.33965 121.4937,10.33965 L114.63045,10.33965 L114.63045,29.7444 C114.63045,30.40665 114.07245,30.9639 113.41095,30.9639 L110.7987,30.9639 C110.1012,30.9639 109.57845,30.40665 109.57845,29.7444 L109.57845,10.33965 L102.71595,10.33965 C102.05445,10.33965 101.4972,9.7824 101.4972,9.1209 L101.4972,6.61215 C101.4972,5.9499 102.05445,5.39265 102.71595,5.39265 L121.4937,5.39265 C122.15595,5.39265 122.67795,5.9499 122.67795,6.61215" id="Fill-15" fill="#01C3C5"></path>
                        <path d="M172.248225,25.2501 C171.585975,25.7376 170.576475,25.9821 169.252725,25.9821 L161.692725,25.9821 L161.692725,20.4426 L168.973725,20.4426 C170.401725,20.4426 171.482475,20.7561 172.212975,21.3831 C172.805475,21.90585 173.084475,22.53285 173.084475,23.3691 C173.084475,24.20535 172.805475,24.7971 172.248225,25.2501 M177.682725,20.82585 C177.125475,19.4676 176.254725,18.3876 175.035225,17.6211 C176.324475,16.3671 176.985975,14.65935 176.985975,12.5346 C176.985975,10.5141 176.289225,8.8416 175.000725,7.55235 C173.432475,5.9151 171.202725,5.1141 168.346725,5.1141 L157.859475,5.1141 C157.198725,5.1141 156.640725,5.67135 156.640725,6.3336 L156.640725,8.8416 C156.640725,9.53835 157.198725,10.0956 157.859475,10.0956 L168.660225,10.0956 C169.809975,10.0956 170.645475,10.3401 171.202725,10.9671 C171.412725,11.1756 171.585975,11.4201 171.690975,11.7336 C171.795225,12.0471 171.864225,12.4296 171.864225,12.8826 C171.864225,13.3011 171.795225,13.68435 171.621225,14.03235 C171.272475,14.6946 170.576475,15.56535 168.346725,15.56535 L157.859475,15.56535 C157.267725,15.56535 156.763725,16.01235 156.662475,16.57935 L156.640725,16.57935 L156.640725,16.78485 L156.640725,19.1886 L156.640725,27.2361 L156.640725,29.46585 L156.640725,29.74485 C156.640725,30.40635 157.198725,30.9636 157.859475,30.9636 L168.973725,30.9636 C170.436975,30.9636 171.725475,30.7896 172.839975,30.40635 C176.324475,29.2911 178.170975,26.9571 178.170975,23.5776 C178.170975,22.56735 178.030725,21.62685 177.682725,20.82585" id="Fill-17" fill="#242121"></path>
                        <path d="M187.476,16.8888 L194.2695,16.8888 C196.29,16.8888 197.61375,16.33155 198.34575,15.1818 C198.55425,14.79855 198.69375,14.2413 198.69375,13.5798 C198.69375,12.43005 198.34575,11.62905 197.61375,11.0013 C196.81275,10.3398 195.76725,10.0263 194.409,10.0263 L187.476,10.0263 L187.476,16.8888 Z M204.024,28.8033 C204.26775,29.1873 204.26775,29.67405 204.0585,30.05805 C203.85,30.4413 203.4315,30.68505 203.01375,30.68505 L199.878,30.68505 C199.46025,30.68505 199.077,30.4758 198.86775,30.1278 L193.6425,21.8013 L187.476,21.8013 L187.476,29.4663 C187.476,30.1278 186.91875,30.68505 186.2565,30.68505 L183.6435,30.68505 C182.982,30.68505 182.42475,30.1278 182.42475,29.4663 L182.42475,6.3333 C182.42475,5.67105 182.982,5.1138 183.6435,5.1138 L194.72175,5.1138 C197.37,5.1138 199.5645,5.8803 201.2025,7.37805 C202.87425,8.91105 203.7105,10.9668 203.7105,13.5798 C203.7105,16.92405 202.21275,19.3623 199.39125,20.5818 C199.21575,20.68605 199.00725,20.7558 198.83325,20.8263 L204.024,28.8033 Z" id="Fill-19" fill="#242121"></path>
                        <path d="M225.52245,23.96145 C226.9512,22.46295 227.64795,20.54745 227.64795,18.1782 C227.64795,15.8097 226.9512,13.92795 225.52245,12.39495 C224.0592,10.8627 222.1782,10.0962 219.73995,10.0962 C217.3002,10.0962 215.4192,10.8627 213.95595,12.39495 C212.52795,13.92795 211.83195,15.8097 211.83195,18.1782 C211.83195,20.54745 212.52795,22.46295 213.95595,23.96145 C215.4192,25.4937 217.3002,26.2602 219.73995,26.2602 C222.1782,26.2602 224.0592,25.4937 225.52245,23.96145 M229.1097,8.9457 C231.4797,11.41995 232.69845,14.52045 232.69845,18.1782 C232.69845,21.83595 231.4797,24.93645 229.1097,27.40995 C226.67145,29.9532 223.50195,31.24245 219.73995,31.24245 C215.97645,31.24245 212.8062,29.9532 210.36795,27.40995 C207.99945,24.93645 206.7792,21.83595 206.7792,18.1782 C206.7792,14.52045 207.99945,11.41995 210.36795,8.9457 C212.8062,6.4032 215.97645,5.11395 219.73995,5.11395 C223.50195,5.11395 226.67145,6.4032 229.1097,8.9457" id="Fill-21" fill="#242121"></path>
                        <path d="M269.456025,5.601825 C269.699775,5.915325 269.769525,6.333825 269.630025,6.681825 L262.454025,29.849325 C262.280025,30.336825 261.827025,30.684825 261.269775,30.684825 L258.308025,30.684825 C257.786025,30.684825 257.298525,30.336825 257.158275,29.849325 L252.036525,13.997325 L246.950775,29.849325 C246.777525,30.336825 246.323775,30.684825 245.801775,30.684825 L242.805525,30.684825 C242.283525,30.684825 241.829775,30.336825 241.656525,29.849325 L234.479025,6.681825 C234.340275,6.333825 234.409275,5.915325 234.653775,5.601825 C234.862275,5.288325 235.245525,5.114325 235.628775,5.114325 L238.381275,5.114325 C238.904025,5.114325 239.391525,5.462325 239.531025,5.985075 L244.337775,21.696825 L249.389025,5.949825 C249.564525,5.462325 250.017525,5.114325 250.539525,5.114325 L253.570275,5.114325 C254.093025,5.114325 254.546025,5.462325 254.720025,5.949825 L259.736775,21.696825 L264.544275,5.985075 C264.719025,5.462325 265.171275,5.114325 265.728525,5.114325 L268.481025,5.114325 C268.863525,5.114325 269.212275,5.288325 269.456025,5.601825" id="Fill-23" fill="#242121"></path>
                        <path d="M292.80195,23.36925 C292.80195,25.947 291.79095,27.93225 289.84095,29.32575 C288.02895,30.5805 285.52095,31.24275 282.4197,31.24275 C278.9022,31.24275 276.1497,30.47625 274.23345,28.94325 C272.45595,27.5145 271.4457,25.494 271.20195,22.95075 C271.16745,22.60275 271.2717,22.25475 271.5162,22.01025 C271.7592,21.7665 272.07345,21.627 272.42145,21.627 L275.1387,21.627 C275.80095,21.627 276.32295,22.1145 276.3582,22.74225 C276.42795,23.9265 276.94995,24.76275 278.0652,25.42425 C279.10995,26.01675 280.60845,26.33025 282.45495,26.33025 C287.7507,26.33025 287.7507,24.24 287.7507,23.4735 C287.7507,22.91625 287.5407,22.56825 287.0892,22.25475 C286.4262,21.801 285.5562,21.41775 284.50995,21.10425 C283.36095,20.75625 282.10695,20.44275 280.7832,20.12925 C279.35445,19.81575 277.99545,19.398 276.7767,18.90975 C275.45295,18.3525 274.3032,17.65575 273.43245,16.74975 C272.42145,15.7395 271.8987,14.38125 271.8987,12.744 C271.8987,10.479 272.7702,8.598 274.5117,7.16925 C276.1842,5.811 278.62245,5.11425 281.82795,5.11425 C285.03345,5.11425 287.57595,5.88075 289.42245,7.413 C291.1302,8.80725 292.0707,10.653 292.17495,12.88275 C292.2102,13.19625 292.0707,13.54425 291.8607,13.78875 C291.6177,13.99725 291.30345,14.13675 290.9907,14.13675 L288.27345,14.13675 C287.68095,14.13675 287.15895,13.68375 287.0892,13.092 C286.98345,12.186 286.56645,10.932 284.26695,10.305 C283.56945,10.09575 282.6642,9.9915 281.61945,9.9915 C280.57395,9.9915 279.70245,10.09575 279.0402,10.3395 C278.37945,10.54875 277.8912,10.7925 277.57845,11.0715 C277.2987,11.31525 277.12545,11.559 277.0557,11.80275 C276.94995,12.1515 276.88095,12.53475 276.88095,12.91725 C276.88095,12.987 276.88095,13.19625 277.19445,13.50975 C277.54245,13.82325 277.99545,14.13675 278.58795,14.346 C279.28545,14.6595 280.08645,14.90325 280.99245,15.1125 C281.9322,15.35625 282.90795,15.6 283.9182,15.8445 C284.9292,16.08825 285.9387,16.36725 286.9137,16.68075 C287.9592,17.02875 288.93495,17.48175 289.77045,18.039 C291.7227,19.293 292.80195,21.1395 292.80195,23.36925" id="Fill-25" fill="#242121"></path>
                        <path d="M316.285575,6.333525 L316.285575,8.842275 C316.285575,9.503775 315.762825,10.061025 315.066075,10.061025 L301.896825,10.061025 L301.896825,15.391275 L313.533075,15.391275 C314.229825,15.391275 314.752575,15.948525 314.752575,16.610775 L314.752575,19.154025 C314.752575,19.815525 314.229825,20.372775 313.533075,20.372775 L301.896825,20.372775 L301.896825,25.738275 L315.066075,25.738275 C315.762825,25.738275 316.285575,26.295525 316.285575,26.957775 L316.285575,29.465775 C316.285575,30.128025 315.762825,30.685275 315.066075,30.685275 L298.065075,30.685275 C297.402825,30.685275 296.845575,30.128025 296.845575,29.465775 L296.845575,6.333525 C296.845575,5.671275 297.402825,5.114025 298.065075,5.114025 L315.066075,5.114025 C315.762825,5.114025 316.285575,5.671275 316.285575,6.333525" id="Fill-27" fill="#242121"></path>
                        <mask id="mask-2" fill="white">
                            <use xlink:href="#path-1"></use>
                        </mask>
                        <g id="Clip-30"></g>
                        <path d="M325.555875,16.8888 L332.349375,16.8888 C334.369875,16.8888 335.693625,16.33155 336.425625,15.1818 C336.634125,14.79855 336.772875,14.2413 336.772875,13.5798 C336.772875,12.43005 336.425625,11.62905 335.693625,11.0013 C334.891875,10.3398 333.847125,10.0263 332.488875,10.0263 L325.555875,10.0263 L325.555875,16.8888 Z M342.103125,28.8033 C342.347625,29.1873 342.347625,29.67405 342.138375,30.05805 C341.929875,30.4413 341.511375,30.68505 341.093625,30.68505 L337.957125,30.68505 C337.540125,30.68505 337.156875,30.4758 336.947625,30.1278 L331.722375,21.8013 L325.555875,21.8013 L325.555875,29.4663 C325.555875,30.1278 324.998625,30.68505 324.336375,30.68505 L321.723375,30.68505 C321.061875,30.68505 320.504625,30.1278 320.504625,29.4663 L320.504625,6.3333 C320.504625,5.67105 321.061875,5.1138 321.723375,5.1138 L332.801625,5.1138 C335.449125,5.1138 337.644375,5.8803 339.282375,7.37805 C340.954125,8.91105 341.790375,10.9668 341.790375,13.5798 C341.790375,16.92405 340.291875,19.3623 337.471125,20.5818 C337.295625,20.68605 337.087125,20.7558 336.912375,20.8263 L342.103125,28.8033 Z" id="Fill-29" fill="#242121"></path>
                        <path d="M15,0 C14.172,0 13.5,0.642830031 13.5,1.43488846 L13.5,7.89188654 C13.5,8.68394497 14.172,9.326775 15,9.326775 C15.828,9.326775 16.5,8.68394497 16.5,7.89188654 L16.5,1.43488846 C16.5,0.642830031 15.828,0 15,0" id="Fill-46" fill="#01C3C5"></path>
                        <path d="M9.75,0 C8.922,0 8.25,0.694522338 8.25,1.55027308 L8.25,8.52650192 C8.25,9.38225266 8.922,10.076775 9.75,10.076775 C10.578,10.076775 11.25,9.38225266 11.25,8.52650192 L11.25,1.55027308 C11.25,0.694522338 10.578,0 9.75,0" id="Fill-48" fill="#01C3C5"></path>
                        <path d="M15.06375,26.25 L14.93625,26.25 C14.14275,26.25 13.5,26.9511818 13.5,27.8168182 L13.5,33.6831818 C13.5,34.5488182 14.14275,35.25 14.93625,35.25 L15.06375,35.25 C15.85725,35.25 16.5,34.5488182 16.5,33.6831818 L16.5,27.8168182 C16.5,26.9511818 15.85725,26.25 15.06375,26.25" id="Fill-50" fill="#01C3C5"></path>
                        <path d="M9.75,26.25 C8.922,26.25 8.25,26.922 8.25,27.75 L8.25,33.75 C8.25,34.578 8.922,35.25 9.75,35.25 C10.578,35.25 11.25,34.578 11.25,33.75 L11.25,27.75 C11.25,26.922 10.578,26.25 9.75,26.25" id="Fill-52" fill="#01C3C5"></path>
                        <path d="M166.5,0 C165.672,0 165,0.672 165,1.5 L165,6.75 C165,7.578 165.672,8.25 166.5,8.25 C167.328,8.25 168,7.578 168,6.75 L168,1.5 C168,0.672 167.328,0 166.5,0" id="Fill-54" fill="#242121"></path>
                        <path d="M166.5,27 C165.672,27 165,27.672 165,28.5 L165,33.75 C165,34.578 165.672,35.25 166.5,35.25 C167.328,35.25 168,34.578 168,33.75 L168,28.5 C168,27.672 167.328,27 166.5,27" id="Fill-56" fill="#242121"></path>
                    </g>
                </g>
            </g>
        </g>
    </g>
</svg>