<svg width="53" height="48" viewBox="0 0 53 48" fill="none" xmlns="http://www.w3.org/2000/svg">
<path d="M10.617 15.5264C10.2765 16.2279 9.78137 16.8365 9.19336 17.342L9.24494 18.6212C19.3856 24.2434 33.4567 24.2434 43.5973 18.6212L43.6489 17.342C43.0506 16.8468 42.5657 16.2279 42.2253 15.5264C32.9821 20.7875 19.8498 20.7875 10.617 15.5264Z" fill="#17C64F"/>
<path d="M23.1924 8.17396C23.0996 8.76197 22.1402 10.3197 22.9036 10.7736C23.5741 11.3719 24.7501 9.97926 25.2866 9.70073C26.5658 8.65881 27.979 10.0308 28.99 10.7736C29.5677 11.2275 30.4446 10.5879 30.1867 9.90705C29.9907 9.16429 29.2892 7.77163 29.6193 7.00824C29.7947 6.19328 31.1976 5.47116 31.7857 4.9863C32.4046 4.58398 32.0642 3.55237 31.3318 3.58332C30.5581 3.54206 29.021 3.77933 28.3917 3.23258C27.6799 2.80962 27.422 1.2519 27.1434 0.540094C27.0093 0.0449251 26.3801 -0.151079 25.9674 0.127453C25.2556 0.797995 25.3588 2.63425 24.4613 3.19131C23.8423 3.77933 22.264 3.53174 21.4799 3.57301C20.7475 3.54206 20.4071 4.57366 21.026 4.97599C22.0576 5.71874 23.7804 6.63687 23.1924 8.17396Z" fill="#17C64F"/>
<path d="M47.1973 18.6314C46.3101 18.6314 45.4745 18.4251 44.7317 18.0537L43.793 42.8534H50.6015L49.6628 18.0537C48.92 18.4251 48.0844 18.6314 47.1973 18.6314Z" fill="#17C64F"/>
<path d="M44.061 16.2071C48.2493 20.2613 54.3874 14.1232 50.3332 9.93493C46.1449 5.89105 40.0068 12.0291 44.061 16.2071Z" fill="#17C64F"/>
<path d="M52.8101 45.5975C52.8101 44.7 52.0777 43.9778 51.1905 43.9675H43.2162C42.3187 43.9675 41.5966 44.7 41.5966 45.5871C41.6379 45.8347 41.4728 47.6916 41.7307 47.836C41.8132 47.9186 41.9267 47.9702 42.0505 47.9702H52.3665C52.4903 47.9702 52.6038 47.9186 52.6863 47.836C52.9339 47.7122 52.7585 45.8347 52.8101 45.5975Z" fill="#17C64F"/>
<path d="M9.61653 43.9778H1.64224C-0.317802 44.0294 0.0226274 46.1854 0.0226274 47.5368C0.0226274 47.7844 0.228948 47.9804 0.476533 47.9804H10.7926C11.0401 47.9804 11.2465 47.7741 11.2465 47.5368C11.2258 46.1854 11.5766 44.0294 9.61653 43.9778Z" fill="#17C64F"/>
<path d="M35.4379 29.226C35.1078 28.411 34.7983 27.4929 33.8286 27.4619H18.9942C18.0348 27.4929 17.7253 28.4213 17.3849 29.226L11.8555 44.0295C12.5673 44.9373 12.3919 46.8767 12.2991 47.9805C12.8355 48.0114 39.9873 48.0011 40.5237 47.9805C40.4309 46.8767 40.2452 44.9476 40.9673 44.0295L35.4379 29.226Z" fill="#17C64F"/>
<path d="M3.15849 18.0537L2.21973 42.8534H9.02831L8.08955 18.0537C6.62467 18.8171 4.63368 18.8171 3.15849 18.0537Z" fill="#17C64F"/>
<path d="M5.63408 17.507C11.4626 17.4141 11.4626 8.73835 5.63408 8.64551C-0.204797 8.73835 -0.194481 17.4141 5.63408 17.507Z" fill="#17C64F"/>
</svg>
