<svg width="75" height="48" viewBox="0 0 75 48" fill="none" xmlns="http://www.w3.org/2000/svg">
<path fill-rule="evenodd" clip-rule="evenodd" d="M72.4499 41.8306H56.9384L55.8861 34.5648C55.3964 31.1798 53.9277 28.0181 51.649 25.7448C52.3393 25.0506 53.162 24.5007 54.0688 24.1275C54.9756 23.7543 55.9482 23.5654 56.9294 23.5718H65.8291C70.2905 23.5718 73.2968 27.2392 73.9328 31.6353L74.9669 38.7743C75.2045 40.4412 74.143 41.8306 72.4499 41.8306ZM61.3812 20.7651C62.9938 20.7643 64.5701 20.2875 65.9106 19.3949C67.2511 18.5023 68.2957 17.2341 68.9123 15.7505C69.5289 14.2669 69.6899 12.6345 69.3748 11.0599C69.0597 9.48519 68.2827 8.0389 67.1422 6.90382C66.0016 5.76875 64.5485 4.99588 62.9668 4.68292C61.3851 4.36996 59.7457 4.53096 58.2558 5.14558C56.766 5.76019 55.4926 6.80082 54.5968 8.13589C53.7009 9.47096 53.2227 11.0405 53.2227 12.6461C53.2227 13.7126 53.4338 14.7687 53.8438 15.754C54.2539 16.7393 54.8549 17.6345 55.6125 18.3884C56.3702 19.1424 57.2696 19.7404 58.2594 20.1482C59.2492 20.5559 60.31 20.7656 61.3812 20.7651ZM18.0673 23.5714H9.16755C4.70615 23.5714 1.69989 27.2388 1.06392 31.6349L0.0343998 38.7738C-0.20817 40.4412 0.853405 41.8306 2.54652 41.8306H18.058L19.1105 34.5648C19.6001 31.1798 21.0734 28.0181 23.3475 25.7448C22.6573 25.0505 21.8346 24.5005 20.9278 24.1273C20.021 23.754 19.0485 23.565 18.0673 23.5714ZM13.6198 20.7651C15.2324 20.7643 16.8086 20.2875 18.1491 19.3949C19.4896 18.5023 20.5342 17.234 21.1508 15.7504C21.7674 14.2668 21.9283 12.6344 21.6132 11.0598C21.2981 9.48511 20.5211 8.03883 19.3805 6.90377C18.2399 5.76871 16.7869 4.99585 15.2052 4.68291C13.6235 4.36996 11.9841 4.53097 10.4942 5.14559C9.00441 5.76021 7.73108 6.80084 6.83521 8.1359C5.93935 9.47097 5.46119 11.0405 5.46119 12.6461C5.46119 13.7127 5.67225 14.7687 6.08231 15.754C6.49236 16.7393 7.09338 17.6345 7.85103 18.3885C8.60868 19.1425 9.5081 19.7404 10.4979 20.1482C11.4877 20.556 12.5486 20.7656 13.6198 20.7651ZM37.4999 2.65087e-07C35.4243 -0.000465132 33.3951 0.611882 31.6691 1.75961C29.943 2.90733 28.5975 4.53888 27.8028 6.44794C27.0081 8.357 26.7998 10.4578 27.2043 12.4847C27.6087 14.5117 28.6078 16.3736 30.0752 17.8352C31.5426 19.2968 33.4123 20.2923 35.4479 20.6959C37.4836 21.0995 39.5937 20.8931 41.5115 20.1027C43.4293 19.3122 45.0686 17.9734 46.2221 16.2553C47.3756 14.5373 47.9915 12.5173 47.992 10.4508C47.9859 7.68173 46.8786 5.02776 44.9124 3.06931C42.9462 1.11085 40.2811 0.007304 37.4999 2.65087e-07ZM53.6482 34.8832C53.0062 30.4476 50.4938 26.5898 46.6719 25.1292L42.698 34.4542L39.9197 40.9755L39.579 28.6928C39.739 28.6307 39.8849 28.5372 40.008 28.418C40.1311 28.2988 40.229 28.1562 40.2958 27.9987L41.5496 24.5136C41.4032 24.5091 41.2568 24.5045 41.1102 24.5045H33.8857C33.7392 24.5045 33.5928 24.5091 33.4464 24.5136L34.7001 27.9987C34.767 28.1562 34.8648 28.2988 34.988 28.418C35.1111 28.5372 35.2569 28.6307 35.4169 28.6928L35.0771 40.9708L32.2987 34.455L28.3248 25.13C24.5029 26.5907 21.9905 30.4485 21.3485 34.8841L20.0168 44.0683C19.7057 46.2096 21.0738 48 23.2521 48H51.7447C53.9228 48 55.2902 46.2096 54.98 44.0683L53.6482 34.8832Z" fill="#17C64F"/>
</svg>
