<svg width="122" height="45" viewBox="0 0 122 45" fill="none" xmlns="http://www.w3.org/2000/svg">
<path fill-rule="evenodd" clip-rule="evenodd" d="M55.8385 2.48427C54.0271 0.857084 51.4277 0 48.268 0C45.1083 0 42.4885 0.857084 40.6745 2.48427C38.8554 4.11656 37.8602 6.49337 37.8602 9.46631C37.8602 12.4392 38.8554 14.816 40.6745 16.4458C42.4885 18.073 45.093 18.9301 48.268 18.9301C51.4431 18.9301 54.0271 18.073 55.8385 16.4458C57.6525 14.8135 58.6477 12.4392 58.6477 9.46631C58.6477 6.49337 57.6525 4.11656 55.8385 2.48427ZM48.268 15.5452C46.559 15.5452 45.1365 15.0565 44.1412 14.0715C43.146 13.0891 42.5447 11.5796 42.5447 9.46631C42.5447 7.35302 43.146 5.84097 44.1412 4.85852C45.1365 3.87351 46.559 3.38484 48.268 3.38484C49.9771 3.38484 51.3791 3.87351 52.3718 4.85852C53.3619 5.84097 53.9632 7.35046 53.9632 9.46631C53.9632 11.5822 53.3619 13.0891 52.3718 14.0741C51.3791 15.0565 49.9617 15.5452 48.268 15.5452Z" fill="#343434"/>
<path fill-rule="evenodd" clip-rule="evenodd" d="M115.402 14.9808V18.6215H100.543V0.300354H105.1V14.9808H115.402Z" fill="#343434"/>
<path fill-rule="evenodd" clip-rule="evenodd" d="M98.2384 18.6215H93.4822L92.093 15.1752L91.0772 12.4556L88.0071 4.94908L84.9625 12.453L83.9724 15.1752L82.5832 18.6215H77.827L85.574 0.300354H90.5169L98.2384 18.6215Z" fill="#343434"/>
<path fill-rule="evenodd" clip-rule="evenodd" d="M75.5929 10.3551C74.9507 9.71293 74.0501 9.24985 72.8809 8.99656C74.7153 8.10878 75.4624 6.41252 75.4624 5.03351C75.4624 4.03827 75.1323 2.84346 74.1166 1.90195C73.0984 0.960437 71.4328 0.300354 68.8206 0.300354H60.347V18.6215H70.2201C72.5483 18.6215 74.1857 17.9589 75.2475 16.9559C76.3067 15.953 76.7595 14.6354 76.7595 13.3792C76.7595 12.2049 76.3911 11.1559 75.5929 10.3551ZM71.4123 14.684C70.9518 15.0371 70.2917 15.2085 69.5088 15.2085H64.9062V3.71334H68.2117C69.189 3.71334 69.8389 3.9564 70.2431 4.31202C70.6422 4.66509 70.829 5.15631 70.829 5.72173C70.829 6.40996 70.5527 6.97282 70.0768 7.36938C69.5958 7.7685 68.9025 8.009 68.0582 8.009H64.9062V10.8105H69.0253C70.1638 10.8105 70.9441 11.0587 71.4379 11.4399C71.9215 11.816 72.1543 12.343 72.1543 12.9724C72.1543 13.7937 71.8626 14.3386 71.4123 14.684Z" fill="#343434"/>
<path fill-rule="evenodd" clip-rule="evenodd" d="M36.7435 14.9808V18.6215H21.8839V0.300354H26.4405V14.9808H36.7435Z" fill="#343434"/>
<path fill-rule="evenodd" clip-rule="evenodd" d="M14.9133 10.0241H19.365V18.6256H15.7755V16.323C15.077 17.0931 14.1329 17.766 12.974 18.2495C12.4367 18.4721 11.8789 18.6435 11.2854 18.7586C10.6944 18.8712 10.0675 18.9301 9.38955 18.9301C6.52408 18.9301 4.17029 18.0295 2.53288 16.3793C0.895461 14.7265 0 12.3548 0 9.46631C0 6.5778 0.961981 4.17029 2.73499 2.5252C4.50289 0.885228 7.05368 0 10.1776 0C13.3014 0 15.5171 0.734278 17.0624 1.89838C18.3749 2.8885 19.0605 4.33147 19.2345 5.06064C19.3855 5.69002 19.3906 6.33475 19.3906 6.33475C19.3931 6.65456 19.3675 6.92575 19.342 7.12531H14.9337C14.9619 6.81062 14.9772 6.16845 14.6395 5.48278C14.3223 4.83549 13.8541 4.48498 13.5726 4.28031C12.2729 3.33367 10.7507 3.38484 10.2031 3.38484C8.52991 3.38484 7.15857 3.91956 6.20427 4.91992C5.2474 5.92028 4.68454 7.41442 4.68454 9.38955C4.68454 11.6691 5.33183 13.1965 6.32707 14.156C7.32487 15.1179 8.709 15.5452 10.2543 15.5452C11.0167 15.5452 12.1245 15.3968 12.8921 15.013C13.2375 14.8595 13.8464 14.5269 14.3223 13.8797C14.4527 13.7006 14.6984 13.3603 14.8288 12.8435C14.8851 12.6286 14.9133 12.4009 14.9133 12.1629V10.0241Z" fill="#343434"/>
<path d="M27.5784 26.2947H22.6471V44.6156H27.5784V26.2947Z" fill="#343434"/>
<path fill-rule="evenodd" clip-rule="evenodd" d="M20.5322 44.5859H15.3616L13.9519 41.0871L12.9672 38.456L10.2445 31.7943L7.54467 38.4534L6.58282 41.0845L5.17312 44.5859H0L7.71516 26.3438H12.845L20.5322 44.5859Z" fill="#343434"/>
<path fill-rule="evenodd" clip-rule="evenodd" d="M122 26.2921L116.147 44.6972H111.49L108.208 33.1258L104.902 44.6972H100.248L94.3924 26.2921H99.5702L102.881 37.7091L106.032 26.2921H110.36L113.514 37.7091L116.822 26.2921H122Z" fill="#343434"/>
<path fill-rule="evenodd" clip-rule="evenodd" d="M91.537 28.5147C89.7151 26.8774 87.1194 26.0318 84.001 26.0318C80.8825 26.0318 78.2689 26.8774 76.4445 28.5147C74.6098 30.1572 73.6207 32.5454 73.6207 35.4973C73.6207 38.4491 74.6098 40.8347 76.4445 42.4772C78.2689 44.1146 80.8697 44.9627 84.001 44.9627C87.1322 44.9627 89.7151 44.1146 91.537 42.4772C93.3665 40.8347 94.3556 38.4466 94.3556 35.4973C94.3556 32.5479 93.3665 30.1572 91.537 28.5147ZM87.8036 39.7867C86.9016 40.6835 85.5999 41.1422 84.001 41.1422C82.402 41.1422 81.0798 40.6835 80.1753 39.7867C79.2708 38.895 78.7019 37.501 78.7019 35.4973C78.7019 33.4935 79.2708 32.0995 80.1753 31.2052C81.0798 30.311 82.3892 29.8497 84.001 29.8497C85.6127 29.8497 86.9016 30.311 87.8036 31.2052C88.7055 32.097 89.2769 33.4909 89.2769 35.4973C89.2769 37.5036 88.7055 38.895 87.8036 39.7867Z" fill="#343434"/>
<path fill-rule="evenodd" clip-rule="evenodd" d="M71.7194 44.6972H66.9457V37.2775H59.226V44.6972H54.4275L54.4275 26.2921H59.226L59.226 33.3346H66.9457V26.2921H71.7194V44.6972Z" fill="#343434"/>
<path fill-rule="evenodd" clip-rule="evenodd" d="M52.5858 39.2386C52.5858 42.4016 50.058 44.9627 46.936 44.9627H35.6051L37.127 40.7541H46.936C47.723 40.7541 48.2442 40.0967 48.437 39.1831C48.5517 38.6445 48.3849 38.0267 48.0618 37.5356C47.7334 37.0339 47.2956 36.7435 46.936 36.7435H41.0021C39.4437 36.7435 38.0052 36.3554 36.9498 35.5448C35.8865 34.7289 35.2324 33.5012 35.2324 31.8774C35.2324 28.651 37.7706 26.0318 41.0021 26.0318H49.3439L51.2828 30.2404H41.0021C40.0822 30.2404 39.3864 30.8846 39.3864 31.6926C39.3864 32.4266 40.0613 33.0259 41.0021 33.0259H46.936C48.9765 33.0259 50.4019 33.789 51.3114 34.9718C52.2157 36.1415 52.5858 37.694 52.5858 39.2386Z" fill="#343434"/>
</svg>
