<svg width="36" height="32" viewBox="0 0 36 32" fill="none" xmlns="http://www.w3.org/2000/svg">
<mask id="path-1-inside-1_467_1725" fill="white">
<path d="M27.9027 14.4686L35.3482 6H33.5838L27.119 13.3532L21.9555 6H16L23.8082 17.1193L16 26H17.7644L24.5915 18.2348L30.0445 26H36L27.9023 14.4686H27.9027ZM25.4861 17.2173L24.695 16.1101L18.4002 7.29968H21.1102L26.1902 14.4099L26.9813 15.5172L33.5847 24.7594H30.8746L25.4861 17.2177V17.2173Z"/>
</mask>
<path d="M27.9027 14.4686L35.3482 6H33.5838L27.119 13.3532L21.9555 6H16L23.8082 17.1193L16 26H17.7644L24.5915 18.2348L30.0445 26H36L27.9023 14.4686H27.9027ZM25.4861 17.2173L24.695 16.1101L18.4002 7.29968H21.1102L26.1902 14.4099L26.9813 15.5172L33.5847 24.7594H30.8746L25.4861 17.2177V17.2173Z" fill="white"/>
<path d="M27.9027 14.4686V15.9686H28.5812L29.0292 15.4591L27.9027 14.4686ZM35.3482 6L36.4747 6.99042L38.6642 4.5H35.3482V6ZM33.5838 6V4.5H32.9053L32.4573 5.00957L33.5838 6ZM27.119 13.3532L25.8914 14.2152L26.9868 15.7752L28.2455 14.3436L27.119 13.3532ZM21.9555 6L23.183 5.13799L22.735 4.5H21.9555V6ZM16 6V4.5H13.1138L14.7724 6.86202L16 6ZM23.8082 17.1193L24.9347 18.1098L25.7141 17.2233L25.0358 16.2573L23.8082 17.1193ZM16 26L14.8735 25.0095L12.6838 27.5H16V26ZM17.7644 26V27.5H18.4429L18.891 26.9904L17.7644 26ZM24.5915 18.2348L25.8191 17.3727L24.7236 15.8128L23.465 17.2443L24.5915 18.2348ZM30.0445 26L28.817 26.862L29.265 27.5H30.0445V26ZM36 26V27.5H38.8863L37.2276 25.138L36 26ZM27.9023 14.4686V12.9686H25.016L26.6747 15.3307L27.9023 14.4686ZM25.4861 17.2173H26.9861V16.7365L26.7066 16.3453L25.4861 17.2173ZM24.695 16.1101L23.4745 16.9821L23.4745 16.9821L24.695 16.1101ZM18.4002 7.29968V5.79968H15.485L17.1797 8.17169L18.4002 7.29968ZM21.1102 7.29968L22.3308 6.42769L21.8821 5.79968H21.1102V7.29968ZM26.1902 14.4099L24.9697 15.2819L24.9697 15.282L26.1902 14.4099ZM26.9813 15.5172L28.2018 14.6452L28.2018 14.6451L26.9813 15.5172ZM33.5847 24.7594V26.2594H36.4999L34.8052 23.8874L33.5847 24.7594ZM30.8746 24.7594L29.6541 25.6315L30.1028 26.2594H30.8746V24.7594ZM25.4861 17.2177H23.9861V17.6985L24.2656 18.0898L25.4861 17.2177ZM27.9027 14.4686L29.0292 15.4591L36.4747 6.99042L35.3482 6L34.2216 5.00958L26.7762 13.4782L27.9027 14.4686ZM35.3482 6V4.5H33.5838V6V7.5H35.3482V6ZM33.5838 6L32.4573 5.00957L25.9924 12.3628L27.119 13.3532L28.2455 14.3436L34.7104 6.99043L33.5838 6ZM27.119 13.3532L28.3465 12.4912L23.183 5.13799L21.9555 6L20.7279 6.86201L25.8914 14.2152L27.119 13.3532ZM21.9555 6V4.5H16V6V7.5H21.9555V6ZM16 6L14.7724 6.86202L22.5806 17.9814L23.8082 17.1193L25.0358 16.2573L17.2276 5.13798L16 6ZM23.8082 17.1193L22.6817 16.1289L14.8735 25.0095L16 26L17.1265 26.9905L24.9347 18.1098L23.8082 17.1193ZM16 26V27.5H17.7644V26V24.5H16V26ZM17.7644 26L18.891 26.9904L25.718 19.2252L24.5915 18.2348L23.465 17.2443L16.6379 25.0096L17.7644 26ZM24.5915 18.2348L23.364 19.0968L28.817 26.862L30.0445 26L31.2721 25.138L25.8191 17.3727L24.5915 18.2348ZM30.0445 26V27.5H36V26V24.5H30.0445V26ZM36 26L37.2276 25.138L29.1298 13.6066L27.9023 14.4686L26.6747 15.3307L34.7724 26.862L36 26ZM27.9023 14.4686V15.9686H27.9027V14.4686V12.9686H27.9023V14.4686ZM25.4861 17.2173L26.7066 16.3453L25.9154 15.238L24.695 16.1101L23.4745 16.9821L24.2656 18.0893L25.4861 17.2173ZM24.695 16.1101L25.9154 15.2381L19.6207 6.42767L18.4002 7.29968L17.1797 8.17169L23.4745 16.9821L24.695 16.1101ZM18.4002 7.29968V8.79968H21.1102V7.29968V5.79968H18.4002V7.29968ZM21.1102 7.29968L19.8897 8.17167L24.9697 15.2819L26.1902 14.4099L27.4107 13.5379L22.3308 6.42769L21.1102 7.29968ZM26.1902 14.4099L24.9697 15.282L25.7609 16.3892L26.9813 15.5172L28.2018 14.6451L27.4107 13.5379L26.1902 14.4099ZM26.9813 15.5172L25.7608 16.3892L32.3642 25.6314L33.5847 24.7594L34.8052 23.8874L28.2018 14.6452L26.9813 15.5172ZM33.5847 24.7594V23.2594H30.8746V24.7594V26.2594H33.5847V24.7594ZM30.8746 24.7594L32.0951 23.8874L26.7066 16.3457L25.4861 17.2177L24.2656 18.0898L29.6541 25.6315L30.8746 24.7594ZM25.4861 17.2177H26.9861V17.2173H25.4861H23.9861V17.2177H25.4861Z" fill="#9CA3AF" mask="url(#path-1-inside-1_467_1725)"/>
</svg>
