<svg width="185" height="51" viewBox="0 0 185 51" fill="none" xmlns="http://www.w3.org/2000/svg">
<path d="M45.3699 39.6499L39.4497 44.6158L31.3704 50.536L21.5508 49.6897L14.1149 48.5281L28.8054 40.3149L45.3699 39.6499Z" fill="#1A1423"/>
<path d="M39.77 21.1871L39.498 4.36774L44.2653 10.2577L49.9178 18.3112L48.8555 28.2862L47.5384 35.8819L39.77 21.1914V21.1871Z" fill="#1A1423"/>
<path d="M21.7118 12.6369L12.2843 29.0185L28.2019 38.179L37.6294 21.7973L21.7118 12.6369Z" fill="#1A1423"/>
<path d="M10.4025 46.3959L5.65251 40.5318L0 32.4784L1.06227 22.5034L2.37932 14.9077L10.1305 29.5636L10.4025 46.3959Z" fill="#1A1423"/>
<path d="M21.1548 10.4759L4.54703 11.1365L10.4673 6.17062L18.5466 0.2547L28.3662 1.09675L35.8323 2.25834L21.1548 10.4759Z" fill="#1A1423"/>
<path d="M26.6606 39.4262L12.2335 47.4969L11.9701 30.9712L26.6606 39.4262Z" fill="#1A1423"/>
<path d="M37.9356 19.842L23.2452 11.3827L37.6722 3.31201L37.9356 19.842Z" fill="#1A1423"/>
<path d="M19.7824 12.366L11.0985 27.4581L3.46827 13.018L19.7824 12.366Z" fill="#1A1423"/>
<path d="M30.1406 38.4222L38.8288 23.3302L46.459 37.7659L30.1406 38.4222Z" fill="#1A1423"/>
<path d="M68.3955 24.9778C69.0734 24.3862 69.4189 23.6046 69.4189 22.6503V20.4221C69.4189 18.3407 67.968 16.8898 65.8866 16.8898H57.505V33.476H66.0593C68.1407 33.476 69.5916 32.0251 69.5916 29.9437V27.3657C69.5916 26.3941 69.1641 25.5521 68.3955 24.9778ZM61.5123 26.8389H65.0143C65.5843 26.8389 65.5843 26.8605 65.5843 27.1023V29.3737C65.5843 29.6198 65.5196 29.6846 65.2734 29.6846H61.5123V26.8389ZM61.5123 20.6812H65.1007C65.3468 20.6812 65.4116 20.7503 65.4116 20.9921V22.8662C65.4116 23.0778 65.3857 23.1469 65.3943 23.1469C65.3771 23.1555 65.3123 23.1771 65.1007 23.1771H61.5123V20.6812Z" fill="#1A1423"/>
<path d="M81.7326 29.6414V33.476H71.1314V16.8898H75.1387V29.6414H81.7326Z" fill="#1A1423"/>
<path d="M91.4548 16.804H86.1952C84.1139 16.804 82.6629 18.2549 82.6629 20.3363V30.0306C82.6629 32.112 84.1139 33.5629 86.1952 33.5629H91.4548C93.5361 33.5629 94.9871 32.112 94.9871 30.0306V20.3363C94.9871 18.2549 93.5361 16.804 91.4548 16.804ZM90.9841 20.9451V29.4174C90.9841 29.6592 90.915 29.7283 90.6732 29.7283H86.9855C86.7436 29.7283 86.6745 29.6592 86.6745 29.4174V20.9451C86.6745 20.7076 86.7436 20.6385 86.9855 20.6385H90.6732C90.915 20.6385 90.9841 20.7076 90.9841 20.9451Z" fill="#1A1423"/>
<path d="M104.324 23.2985V20.9451C104.324 20.7076 104.254 20.6385 104.013 20.6385H100.606C100.368 20.6385 100.295 20.7076 100.295 20.9451V29.4174C100.295 29.6592 100.368 29.7283 100.606 29.7283H104.013C104.254 29.7283 104.324 29.6592 104.324 29.4174V27.064H108.331V30.0306C108.331 32.112 106.88 33.5629 104.799 33.5629H99.8197C97.7426 33.5629 96.2874 32.112 96.2874 30.0306V20.3363C96.2874 18.2549 97.7426 16.804 99.8197 16.804H104.799C106.88 16.804 108.331 18.2549 108.331 20.3363V23.2985H104.324Z" fill="#1A1423"/>
<path d="M123.339 33.476H118.822L115.389 26.9987L113.684 29.1751V33.476H109.715V16.8898H113.684V23.3887L118.472 16.8898H123.266L118.066 23.5657L123.339 33.476Z" fill="#1A1423"/>
<path d="M131.669 23.2985V20.9451C131.669 20.7076 131.6 20.6385 131.358 20.6385H127.956C127.714 20.6385 127.645 20.7076 127.645 20.9451V29.4174C127.645 29.6592 127.714 29.7283 127.956 29.7283H131.358C131.6 29.7283 131.669 29.6592 131.669 29.4174V27.064H135.677V30.0306C135.677 32.112 134.226 33.5629 132.144 33.5629H127.165C125.088 33.5629 123.633 32.112 123.633 30.0306V20.3363C123.633 18.2549 125.088 16.804 127.165 16.804H132.144C134.226 16.804 135.677 18.2549 135.677 20.3363V23.2985H131.669Z" fill="#1A1423"/>
<path d="M149.635 16.8898V33.476H145.627V26.9253H141.076V33.476H137.069V16.8898H141.076V23.0907H145.627V16.8898H149.635Z" fill="#1A1423"/>
<path d="M159.782 16.8898H155.485L150.139 33.476H154.306L155.355 29.9394H159.799L160.822 33.476H165.123L159.782 16.8898ZM157.605 22.3135L158.698 26.1048H156.487L157.605 22.3135Z" fill="#1A1423"/>
<path d="M169.64 16.8898H165.628V33.476H169.64V16.8898Z" fill="#1A1423"/>
<path d="M184.661 16.8898V33.476H180.585L175.489 24.0321V33.476H171.676V16.8898H175.752L180.848 26.3337V16.8898H184.661Z" fill="#1A1423"/>
<path d="M62.611 0.173848C63.5048 0.173848 64.3042 0.321214 65.0054 0.62023C65.7055 0.918791 66.2765 1.34314 66.7136 1.89477C67.1533 2.44965 67.4132 3.11257 67.4908 3.86825L67.5104 4.06011H65.1209L65.0906 3.92307C65.0123 3.55925 64.8577 3.26071 64.6334 3.02247L64.4474 2.8492C64.2517 2.68678 64.0263 2.55538 63.7681 2.45764V2.45862C63.4174 2.32774 63.0261 2.25991 62.5816 2.2599C61.9412 2.2599 61.4164 2.38094 61.0075 2.61525L61.0056 2.61622C60.5856 2.84957 60.2726 3.16372 60.0658 3.55891L60.0648 3.56087C59.8525 3.95813 59.7477 4.42571 59.7477 4.96952V6.56514C59.7477 7.02025 59.8152 7.41117 59.9454 7.7506H59.9444C60.0594 8.04602 60.2123 8.2966 60.4065 8.50044L60.4926 8.58561L60.4936 8.58659C60.7286 8.80767 61.0105 8.97906 61.3413 9.09562L61.6008 9.17197C61.8689 9.23747 62.1616 9.26984 62.4818 9.26987C63.0689 9.26987 63.552 9.16891 63.9433 8.9664L63.9443 8.96543C64.336 8.76725 64.6292 8.48342 64.836 8.11573C65.0006 7.81405 65.1009 7.45845 65.1327 7.04187H62.3633V5.2534H67.5515V11.1582H65.7308L65.719 10.9976L65.6143 9.61444C65.4731 9.86557 65.291 10.0928 65.068 10.2928C64.7068 10.6174 64.2795 10.8677 63.7827 11.0436H63.7818C63.2891 11.2148 62.7425 11.3021 62.1489 11.3021C61.1122 11.3021 60.2198 11.0935 59.4912 10.6668C58.7625 10.2399 58.2124 9.61491 57.8457 8.79901L57.8447 8.79803C57.4795 7.98005 57.2985 6.99533 57.2985 5.84466V5.78985C57.2985 4.86016 57.4246 4.04436 57.6763 3.34551C57.9275 2.64823 58.2886 2.06364 58.7609 1.59131C59.2277 1.11963 59.7914 0.768619 60.4437 0.527234H60.4447C61.0928 0.290653 61.8189 0.173882 62.611 0.173848Z" fill="#1A1423" stroke="#1A1423" stroke-width="0.346278"/>
<path d="M70.9072 0.318053V9.04111H76.0465V11.1575H68.5569V0.318053H70.9072Z" fill="#1A1423" stroke="#1A1423" stroke-width="0.346278"/>
<path d="M81.6977 0.17966C82.7499 0.17966 83.6692 0.38764 84.4592 0.811056C85.2518 1.23584 85.8629 1.86324 86.2957 2.68762C86.7297 3.51425 86.9418 4.5284 86.9418 5.72126V5.76629C86.9417 6.51841 86.8562 7.20164 86.6804 7.82102L86.5991 8.08239C86.3732 8.76509 86.0333 9.34906 85.5879 9.83072C85.1408 10.3141 84.5909 10.6768 83.9365 10.9242C83.4266 11.1169 82.8603 11.2316 82.2371 11.2736L82.2812 11.303H81.7075C80.5925 11.303 79.6367 11.0895 78.8491 10.6491C78.0614 10.2085 77.4709 9.57026 77.0636 8.74022C76.6563 7.91009 76.4645 6.91808 76.4645 5.77608V5.73105C76.4645 4.83116 76.5858 4.03529 76.8326 3.34643C77.0784 2.66029 77.4282 2.07626 77.8849 1.60397C78.3418 1.13148 78.8961 0.779716 79.5441 0.537941H79.5461C80.1934 0.301687 80.9144 0.179672 81.6977 0.17966ZM81.7026 2.27648C81.0626 2.27651 80.5422 2.39668 80.1374 2.62204C79.729 2.84941 79.4256 3.16294 79.2231 3.55885C79.0183 3.95913 78.9088 4.42346 78.9088 4.95575V6.54159C78.9089 6.86092 78.9443 7.15172 79.0165 7.41575L79.1007 7.67027L79.1017 7.67223C79.2278 8.00382 79.408 8.28531 79.6411 8.50919C79.8754 8.73433 80.1618 8.91045 80.5074 9.03193H80.5084C80.8488 9.15318 81.246 9.21595 81.7026 9.21596H81.7075C82.3084 9.21596 82.8159 9.10487 83.2219 8.88803L83.2239 8.88705C83.6362 8.67388 83.9489 8.37036 84.1656 7.97862C84.3823 7.58675 84.4964 7.10973 84.4964 6.53669V4.95086C84.4964 4.55671 84.4352 4.19384 84.3183 3.86623C84.2017 3.53979 84.0297 3.25799 83.8044 3.02339C83.5812 2.79112 83.2908 2.60557 82.939 2.47422C82.5897 2.34386 82.1786 2.27648 81.7026 2.27648Z" fill="#1A1423" stroke="#1A1423" stroke-width="0.346278"/>
<path d="M93.4319 0.318053C93.9956 0.318053 94.4855 0.378836 94.9081 0.504046C95.3285 0.628611 95.6856 0.81293 95.9673 1.06692C96.2474 1.3147 96.4571 1.62147 96.5958 1.97339L96.5967 1.97437C96.7348 2.33024 96.8023 2.72519 96.8023 3.15591C96.8022 3.77749 96.6442 4.32683 96.3109 4.78383C96.0642 5.12197 95.7365 5.37094 95.3349 5.53661C95.7833 5.66524 96.1623 5.90581 96.4665 6.25807C96.8761 6.73228 97.0802 7.3464 97.0803 8.06122C97.0803 8.76786 96.9201 9.36294 96.5909 9.82717C96.2659 10.2853 95.8139 10.6226 95.238 10.8374C94.6665 11.0555 93.9989 11.1575 93.2489 11.1575H88.1791V0.318053H93.4319ZM90.4697 9.34457H93.0296C93.5405 9.34457 93.9332 9.22644 94.218 9.01174C94.4866 8.80556 94.631 8.50693 94.6311 8.09157V7.68923C94.6311 7.31653 94.4984 7.03993 94.2356 6.83171C93.9689 6.62532 93.5745 6.51063 93.0296 6.51063H90.4697V9.34457ZM90.4697 4.72216H92.9307C93.4236 4.7221 93.7828 4.61265 94.03 4.41674C94.2746 4.21814 94.3971 3.96088 94.3971 3.61306V3.21073C94.3971 2.94064 94.3346 2.74199 94.2248 2.59597C94.1082 2.44601 93.9478 2.33009 93.7266 2.25042V2.24944C93.5055 2.17303 93.2371 2.13099 92.9151 2.13099H90.4697V4.72216Z" fill="#1A1423" stroke="#1A1423" stroke-width="0.346278"/>
<path d="M104.084 0.314321L104.126 0.430812L107.753 10.9286L107.834 11.1587H105.477L105.437 11.0422L104.687 8.86802H100.416L99.6666 11.0422L99.6265 11.1587H97.325L97.4043 10.9286L101.018 0.430812L101.059 0.314321H104.084ZM102.047 3.93335L101.003 6.99929H104.091L103.046 3.91866V3.91768L102.547 2.47379L102.047 3.93335Z" fill="#1A1423" stroke="#1A1423" stroke-width="0.346278"/>
<path d="M110.855 0.318053V9.04111H115.994V11.1575H108.504V0.318053H110.855Z" fill="#1A1423" stroke="#1A1423" stroke-width="0.346278"/>
<path d="M140.358 37.9359C141.31 37.9359 142.12 38.0726 142.792 38.3471C143.466 38.6223 143.985 39.0307 144.351 39.5736C144.717 40.1174 144.897 40.7598 144.908 41.4923L144.911 41.6685H142.37L142.365 41.5001C142.355 41.1588 142.275 40.8846 142.13 40.6641C141.983 40.4426 141.768 40.2646 141.473 40.1365C141.178 40.0086 140.81 39.9407 140.358 39.9407C139.971 39.9407 139.637 39.9979 139.358 40.1022C139.083 40.2055 138.882 40.354 138.744 40.5427C138.605 40.732 138.535 40.9487 138.535 41.2045C138.535 41.4673 138.592 41.6511 138.697 41.7987C138.778 41.9139 138.887 42.0136 139.028 42.0973L139.18 42.1756L139.181 42.1765C139.404 42.2776 139.676 42.3656 140 42.4389H140.001C140.333 42.5085 140.696 42.5835 141.101 42.6582H141.102C141.535 42.7294 141.951 42.8283 142.344 42.943C142.742 43.0591 143.114 43.2086 143.453 43.3865C143.711 43.5219 143.942 43.6798 144.148 43.8603L144.347 44.0482L144.348 44.0502C144.602 44.3157 144.803 44.6374 144.94 45.0085C145.078 45.3821 145.145 45.8179 145.145 46.3066C145.145 47.1163 144.943 47.8061 144.535 48.3584L144.534 48.3574C144.128 48.9112 143.561 49.3128 142.85 49.5702C142.144 49.8261 141.316 49.9579 140.374 49.9579H140.267L140.26 49.9442C139.284 49.9333 138.449 49.7763 137.762 49.4626H137.761C137.057 49.1386 136.512 48.6869 136.142 48.094C135.772 47.5086 135.594 46.8301 135.594 46.0755V45.9023H138.129L138.136 46.0667C138.156 46.5023 138.259 46.8466 138.435 47.1093C138.613 47.3738 138.864 47.5726 139.194 47.7005H139.193C139.535 47.8313 139.938 47.8982 140.412 47.8983C140.888 47.8983 141.291 47.8356 141.6 47.7211C141.907 47.6074 142.122 47.4444 142.265 47.2326C142.41 47.0174 142.483 46.7669 142.483 46.4632C142.483 46.1573 142.415 45.9487 142.292 45.7868C142.162 45.6143 141.981 45.4753 141.744 45.3668C141.498 45.2543 141.204 45.1559 140.86 45.0829C140.506 45.0078 140.125 44.9259 139.713 44.8402V44.8411C139.161 44.7373 138.656 44.6004 138.189 44.43C137.719 44.2586 137.309 44.0462 136.963 43.78V43.779C136.614 43.5156 136.344 43.1887 136.159 42.8089V42.8079C135.968 42.4183 135.878 41.9659 135.878 41.4463C135.878 40.6917 136.063 40.0402 136.449 39.5149C136.827 38.988 137.363 38.5987 138.039 38.3304L138.04 38.3294C138.715 38.0673 139.485 37.9359 140.358 37.9359Z" fill="#1A1423" stroke="#1A1423" stroke-width="0.346278"/>
<path d="M149.043 38.0778V42.755H154.014V38.0778H156.525V49.7924H154.014V44.9536H149.043V49.7924H146.527V38.0778H149.043Z" fill="#1A1423" stroke="#1A1423" stroke-width="0.346278"/>
<path d="M163.417 37.9359C164.554 37.9359 165.547 38.1612 166.4 38.6182H166.401C167.25 39.0765 167.915 39.7538 168.383 40.6446C168.851 41.537 169.081 42.6322 169.081 43.9219V43.9709C169.081 44.9006 168.96 45.7325 168.711 46.4749C168.467 47.2122 168.1 47.8424 167.619 48.3623C167.137 48.8841 166.543 49.2757 165.836 49.5428C165.132 49.8089 164.328 49.9392 163.423 49.9403L163.422 49.9471C162.216 49.9471 161.185 49.7166 160.334 49.2413C159.484 48.7657 158.846 48.0763 158.406 47.1797V47.1788C157.972 46.2832 157.759 45.2116 157.759 43.9758V43.9278C157.759 42.9546 157.89 42.0944 158.156 41.3503C158.422 40.6094 158.8 39.9785 159.293 39.4738C159.786 38.9637 160.385 38.5847 161.091 38.3236C161.797 38.0625 162.571 37.9359 163.417 37.9359ZM163.417 40.1668C162.722 40.1668 162.156 40.2972 161.715 40.5427C161.27 40.7902 160.94 41.1316 160.719 41.5628C160.496 41.9985 160.378 42.5045 160.378 43.083V44.8C160.378 45.2622 160.445 45.6701 160.586 46.0276C160.729 46.3913 160.921 46.6977 161.174 46.9409C161.43 47.1863 161.742 47.3784 162.118 47.5106H162.119C162.49 47.6426 162.921 47.7103 163.417 47.7103H163.422C164.079 47.7103 164.627 47.59 165.076 47.3579C165.525 47.1258 165.866 46.795 166.102 46.3682C166.338 45.9414 166.462 45.4224 166.462 44.8V43.083C166.462 42.653 166.4 42.2593 166.269 41.9054L166.268 41.9034C166.141 41.5486 165.955 41.2414 165.704 40.9803H165.703C165.459 40.7271 165.144 40.5251 164.761 40.3822C164.381 40.2402 163.934 40.1668 163.417 40.1668Z" fill="#1A1423" stroke="#1A1423" stroke-width="0.346278"/>
<path d="M172.308 38.0778L172.334 38.2197L173.831 46.3584V46.3603L173.928 46.9291L175.907 38.2129L175.938 38.0778H178.632L178.663 38.2129L180.642 46.9976L180.723 46.5013V46.4993L182.16 38.2217L182.185 38.0778H184.788L184.745 38.2853L182.453 49.6534L182.424 49.7924H179.169L179.137 49.6583L177.361 42.0365L177.36 42.0326L177.295 41.7242L177.231 42.0326L177.23 42.0375L175.438 49.6583L175.407 49.7924H172.163L172.133 49.6544L169.749 38.2863L169.706 38.0778H172.308Z" fill="#1A1423" stroke="#1A1423" stroke-width="0.346278"/>
</svg>
