<svg width="21" height="21" viewBox="0 0 21 21" fill="none" xmlns="http://www.w3.org/2000/svg">
<path d="M4.6875 20.9531H0.328125V6.9375H4.6875V20.9531ZM2.48438 5.0625C1.125 5.0625 0 3.89062 0 2.48438C0 1.125 1.125 0 2.48438 0C3.89062 0 5.01562 1.125 5.01562 2.48438C5.01562 3.89062 3.89062 5.0625 2.48438 5.0625ZM20.9531 20.9531H16.6406V14.1562C16.6406 12.5156 16.5938 10.4531 14.3438 10.4531C12.0938 10.4531 11.7656 12.1875 11.7656 14.0156V20.9531H7.40625V6.9375H11.5781V8.85938H11.625C12.2344 7.78125 13.6406 6.60938 15.75 6.60938C20.1562 6.60938 21 9.51562 21 13.2656V20.9531H20.9531Z" fill="#9CA3AF"/>
</svg>
