<svg width="189" height="75" viewBox="0 0 189 75" fill="none" xmlns="http://www.w3.org/2000/svg">
<g clip-path="url(#clip0_476_92)">
<path d="M83.0459 10.6607H90.5586C90.6202 10.894 90.6755 11.3604 90.6755 12.2749C90.6755 16.3625 88.0605 19.3821 83.5935 19.3821C79.1265 19.3821 76.0993 16.2704 76.0993 11.7716C76.0993 7.27282 79.1634 4.1611 83.5935 4.1611C86.2639 4.1611 88.3743 5.30881 89.6049 7.21758L86.953 9.43937C86.2331 8.29165 84.9841 7.6288 83.5935 7.6288C81.4092 7.6288 80.0987 9.22455 80.0987 11.7532C80.0987 14.2819 81.4277 15.8776 83.5935 15.8776C85.1748 15.8776 86.2085 15.1595 86.6577 14.0671H83.0459V10.6607Z" fill="#1A1423"/>
<path d="M91.7076 4.46888H95.6516V15.6023H99.9032V19.07H91.7076V4.46888Z" fill="#1A1423"/>
<path d="M99.6895 11.7716C99.6895 7.27282 102.754 4.1611 107.165 4.1611C111.577 4.1611 114.66 7.27282 114.66 11.7716C114.66 16.2704 111.595 19.3821 107.165 19.3821C102.735 19.3821 99.6895 16.2704 99.6895 11.7716ZM110.617 11.7532C110.617 9.24296 109.368 7.66562 107.165 7.66562C104.963 7.66562 103.732 9.24296 103.732 11.7532C103.732 14.2635 104.981 15.8224 107.165 15.8224C109.35 15.8224 110.617 14.2819 110.617 11.7532Z" fill="#1A1423"/>
<path d="M121.822 19.07H115.755V4.46888H121.551C124.338 4.46888 126.233 5.98485 126.233 8.43985C126.233 9.56916 125.766 10.8703 124.381 11.5147C125.963 12.2574 126.529 13.712 126.529 15.0561C126.529 17.2779 124.615 19.0639 121.828 19.0639L121.822 19.07ZM119.693 10.1768H121.04C121.902 10.1768 122.271 9.64894 122.271 9.01064C122.271 8.31097 121.883 7.84451 121.102 7.84451H119.699V10.1829L119.693 10.1768ZM122.523 14.4976C122.523 13.8777 122.154 13.3499 121.311 13.3499H119.693V15.6637H121.373C122.136 15.6637 122.523 15.1359 122.523 14.4976Z" fill="#1A1423"/>
<path d="M130.294 4.46888H135.488L139.665 19.07H135.389L134.805 16.615H130.805L130.221 19.07H126.123L130.301 4.46888H130.294ZM131.599 13.2087H133.999L132.848 8.32324H132.768L131.599 13.2087Z" fill="#1A1423"/>
<path d="M140.243 4.46888H144.187V15.6023H148.439V19.07H140.243V4.46888Z" fill="#1A1423"/>
<path d="M136.209 55.9845L139.009 57.6908C140.043 58.3107 141.285 59.5136 141.285 61.7231C141.285 64.3991 139.206 66.1483 136.326 66.1483C133.157 66.1483 131.638 64.2272 131.25 61.9809L134.653 60.6429C134.849 61.3242 135.237 62.6622 136.382 62.6622C137.021 62.6622 137.292 62.2141 137.292 61.7906C137.292 61.3671 137.157 61.0357 136.455 60.6061L134.08 59.1515C133.108 58.55 131.668 57.7153 131.668 55.2726C131.668 53.0631 133.416 50.9886 136.295 50.9886C138.997 50.9886 140.516 52.3266 141.218 54.5545L137.852 55.8127C137.286 54.5729 136.726 54.3765 136.24 54.3765C135.871 54.3765 135.502 54.6281 135.502 55.0578C135.502 55.561 135.871 55.7943 136.203 55.9907L136.209 55.9845Z" fill="#1A1423"/>
<path d="M142.534 51.2895H146.46V56.8378H150.385V51.2895H154.311V65.8354H150.385V60.2503H146.46V65.8354H142.534V51.2895Z" fill="#1A1423"/>
<path d="M155.406 58.5627C155.406 54.0823 158.458 50.9768 162.851 50.9768C167.244 50.9768 170.321 54.0823 170.321 58.5627C170.321 63.0431 167.269 66.1487 162.851 66.1487C158.433 66.1487 155.406 63.0431 155.406 58.5627ZM166.297 58.5443C166.297 56.0402 165.054 54.469 162.857 54.469C160.661 54.469 159.436 56.0402 159.436 58.5443C159.436 61.0484 160.679 62.5951 162.857 62.5951C165.035 62.5951 166.297 61.0607 166.297 58.5443Z" fill="#1A1423"/>
<path d="M179.284 58.4643H179.204L177.105 65.8354H173.371L170.048 51.2895H174.25L175.573 59.0842H175.653L177.616 51.2895H180.939L182.865 59.0842H182.945L184.249 51.2895H188.408L185.104 65.8354H181.314L179.29 58.4643H179.284Z" fill="#1A1423"/>
<path d="M87.0866 24.8632C90.9322 24.8632 94.2855 26.95 96.0761 30.0433L87.0866 35.2049H97.4543C97.4543 40.8392 92.9504 45.3871 87.382 45.5466C81.5367 45.7124 76.7128 41.0356 76.7128 35.2049C76.7128 29.3743 81.3583 24.8632 87.0805 24.8632H87.0866Z" fill="#1A1423"/>
<path d="M108.616 45.5528V39.5135H107.342V45.5528H96.0395L107.976 24.8632L119.913 45.5528H108.61H108.616Z" fill="#1A1423"/>
<path d="M131.043 30.4484V35.8432H132.323V30.4484L142.057 24.8632V45.5528H121.315V24.8632L131.043 30.4484Z" fill="#1A1423"/>
<path d="M165.297 24.8624V30.9078H154.284V32.1844H165.297V38.2299H154.284V39.5065H165.297V45.5458H144.55V24.8563H165.297V24.8624Z" fill="#1A1423"/>
<path d="M167.549 35.2111H172.736C169.887 35.2111 167.555 32.8849 167.555 30.0371C167.555 27.1893 169.887 24.8632 172.736 24.8632H188.297V35.2049H183.11C185.965 35.2049 188.297 37.5311 188.297 40.3727C188.297 43.2144 185.965 45.5467 183.11 45.5467H167.549V35.2049V35.2111Z" fill="#1A1423"/>
<path d="M50.2909 65.2576L50.2735 64.5583C50.2735 64.5555 50.2765 64.5536 50.2789 64.555C50.2801 64.5556 50.2808 64.5568 50.2808 64.5581L50.2909 65.2576Z" fill="#4BDE4A"/>
<path d="M34.0705 72.4269C34.0807 72.9982 33.4662 73.3642 32.9689 73.0829L20.6663 66.123C20.4318 65.9903 20.2882 65.7404 20.2916 65.4709L20.2968 65.063L20.2906 62.1592L20.306 57.1134C20.3078 56.5456 20.9229 56.1921 21.4141 56.4766L33.5537 63.5114C33.7774 63.6411 33.917 63.8784 33.9216 64.137L34.0705 72.4269Z" fill="#4BDE4A"/>
<path d="M33.8277 59.4379C33.8376 60.0127 33.216 60.3778 32.7189 60.0892L31.0563 59.1235L28.4839 57.642L20.6856 53.1252C20.457 52.9928 20.3166 52.7483 20.3173 52.4841L20.3274 48.9921L20.3222 47.3003C20.3214 47.0299 20.4684 46.7807 20.7055 46.6506L21.0252 46.4753L32.3957 40.2056C32.8825 39.9372 33.48 40.2829 33.4902 40.8388L33.7268 53.8237L33.7509 54.7457L33.7964 57.6131L33.8277 59.4379Z" fill="#4BDE4A"/>
<path d="M37.0029 34.7692C36.516 35.0376 35.9184 34.6918 35.9084 34.1358L35.6672 20.6848C35.6607 20.4361 35.7881 20.2031 36.0009 20.0744L42.753 15.9898C42.7604 15.9854 42.7699 15.9874 42.7748 15.9945C42.7761 15.9964 42.7779 15.9981 42.78 15.9993L52.0291 21.3534L55.4559 23.3312C55.9545 23.619 55.9466 24.3414 55.4418 24.6182L52.1192 26.44L51.3912 26.8519L50.2769 27.4577L49.6111 27.8265L48.7871 28.2728L37.0029 34.7692Z" fill="#4BDE4A"/>
<path d="M59.5468 22.3574C59.3202 22.482 59.045 22.479 58.8212 22.3494L49.4115 16.8983L46.3339 15.1209C45.8474 14.8399 45.8405 14.14 46.3214 13.8495L49.3239 12.0354L51.8298 10.5123L52.0935 10.3547C52.3212 10.2186 52.6044 10.2152 52.8353 10.3457L66.6546 18.1563C66.7054 18.185 66.7376 18.238 66.7398 18.2963C66.7421 18.3598 66.7085 18.4192 66.6528 18.4498L59.5468 22.3574Z" fill="#4BDE4A"/>
<path d="M35.5129 17.3031C35.3262 17.4153 35.0934 17.4175 34.9045 17.3089L32.9526 16.1859L20.82 9.16291C20.3309 8.87979 20.3282 8.17443 20.8152 7.88761L24.7606 5.56362L26.0091 4.81894L33.9838 0.107591C34.211 -0.0267199 34.4927 -0.0294389 34.7225 0.10046L49.1688 8.26599C49.4661 8.434 49.4728 8.85985 49.181 9.03714L35.5129 17.3031Z" fill="#4BDE4A"/>
<path d="M33.3603 33.7167C33.371 34.2915 32.7499 34.6574 32.2525 34.3696L22.082 28.4839L20.3495 27.493L19.5729 27.0275L17.8149 26.0129L5.00763 18.5997C4.51876 18.3167 4.51576 17.6118 5.0022 17.3247L16.9331 10.2825C17.1638 10.1463 17.4502 10.1458 17.6814 10.2813L17.8397 10.374L20.3824 11.8392L32.8066 19.0255L32.814 19.0295C32.989 19.1378 33.0969 19.3277 33.1004 19.5334L33.1393 21.809L33.3603 33.7167Z" fill="#4BDE4A"/>
<path d="M18.8255 44.7787C18.5992 44.903 18.3244 44.9 18.1008 44.7707L2.95993 36.0153C2.73369 35.8845 2.59346 35.6438 2.59123 35.3824L2.47169 21.3612C2.46682 20.7897 3.08502 20.4296 3.5796 20.7158L17.0867 28.5324L17.8121 28.9504L18.4561 29.3237L18.9559 29.6081L19.6072 29.9854L20.3508 30.4231L31.191 36.6874C31.6886 36.975 31.6813 37.696 31.178 37.9735L20.3262 43.9545L18.8255 44.7787Z" fill="#4BDE4A"/>
<path d="M17.7518 45.3748C17.7638 45.3677 17.7788 45.3768 17.7783 45.3907C17.7776 45.4084 17.754 45.4141 17.7453 45.3985C17.7407 45.3902 17.7436 45.3796 17.7518 45.3748Z" fill="#4BDE4A"/>
<path d="M17.8082 63.846C17.807 64.4108 17.198 64.7652 16.7065 64.4872L3.19131 56.841C2.96177 56.7111 2.81893 56.4686 2.81656 56.2049L2.71348 44.7967L2.68641 40.6727C2.68268 40.1018 3.30044 39.7428 3.79445 40.0288L17.4676 47.945C17.696 48.0772 17.8365 48.3214 17.836 48.5854L17.8082 63.846Z" fill="#4BDE4A"/>
<path d="M17.7453 45.3985C17.7407 45.3902 17.7436 45.3796 17.7518 45.3748C17.7638 45.3677 17.7788 45.3768 17.7783 45.3907C17.7776 45.4084 17.754 45.4141 17.7453 45.3985Z" fill="#4BDE4A"/>
<path d="M50.2789 64.555C50.2801 64.5556 50.2808 64.5568 50.2808 64.5581L50.2909 65.2576L50.2735 64.5583C50.2735 64.5555 50.2765 64.5536 50.2789 64.555Z" fill="#4BDE4A"/>
<path d="M54.4392 64.2226C53.9521 64.5102 53.3359 64.1656 53.3258 63.5999L53.0635 48.899C53.0586 48.6251 53.2057 48.371 53.4456 48.2389L66.3565 41.1303C66.8461 40.8607 67.4461 41.2121 67.4507 41.7712L67.5671 56.0446C67.5692 56.308 67.431 56.5525 67.2042 56.6864L54.4392 64.2226Z" fill="#4BDE4A"/>
<path d="M54.0756 44.9958C53.5889 45.2637 52.9918 44.9182 52.9815 44.3626L52.7059 29.4854C52.7008 29.2112 52.8481 28.9568 53.0883 28.8247L66.1995 21.6133C66.6892 21.3439 67.289 21.6954 67.2935 22.2544L67.4127 37.2109C67.4149 37.4822 67.2681 37.7328 67.0305 37.8636L54.0756 44.9958Z" fill="#4BDE4A"/>
<path d="M37.6922 73.5156C37.2051 73.8032 36.5889 73.4586 36.5788 72.8929L36.3165 58.192C36.3116 57.9181 36.4587 57.664 36.6986 57.5319L49.6095 50.4233C50.0991 50.1537 50.6991 50.5051 50.7037 51.0642L50.8201 65.3376C50.8223 65.601 50.684 65.8456 50.4572 65.9794L37.6922 73.5156Z" fill="#4BDE4A"/>
<path d="M37.3197 54.0187C36.8328 54.287 36.2353 53.9411 36.2254 53.3851L35.9602 38.5054C35.9553 38.2315 36.1024 37.9774 36.3423 37.8453L49.4464 30.6305C49.9361 30.3609 50.5362 30.7123 50.5406 31.2715L50.6599 46.2275C50.6621 46.4987 50.5154 46.7493 50.2779 46.8801L37.3197 54.0187Z" fill="#4BDE4A"/>
</g>
<defs>
<clipPath id="clip0_476_92">
<rect width="188.217" height="74.9676" fill="white" transform="scale(1.00043)"/>
</clipPath>
</defs>
</svg>
