<svg width="48" height="48" viewBox="0 0 48 48" fill="none" xmlns="http://www.w3.org/2000/svg">
<path d="M32.8525 38.2375L41.7665 29.3236C40.7357 27.9339 40.1127 26.2978 39.9579 24.564C38.7548 26.2797 35.5999 30.945 35.3365 31.281C34.8077 31.9548 34.1873 32.5153 33.4988 32.9529C33.9341 34.7404 33.6623 36.6247 32.8525 38.2375Z" fill="#17C64F"/>
<path d="M31.0669 12.5065C32.1774 13.2702 33.2137 14.5839 33.7132 16.1094C34.6139 18.8605 33.7628 22.0535 31.3376 23.9952C32.6819 25.0674 33.616 26.6056 33.941 28.3596C38.8687 21.172 38.9069 20.959 41.4639 18.3741L29.3236 6.23389C27.9343 7.26439 26.2988 7.88737 24.5654 8.04243C25.9063 8.98285 27.8558 10.2994 31.0669 12.5065Z" fill="#17C64F"/>
<path d="M26.3686 39.9195C26.8368 39.9195 27.5966 39.5698 27.6059 39.5698C30.4188 38.3286 31.7681 34.984 30.2757 32.4052C32.1974 30.0268 31.1247 26.4939 28.3349 25.4978C27.8404 24.1173 26.6867 23.0789 25.2775 22.7223C24.9205 21.3126 23.8815 20.1585 22.5005 19.6644C21.3644 16.5041 17.0943 15.6302 14.8762 18.4555C14.2611 19.2377 10.1816 25.525 8.42812 27.6051C8.42812 27.6051 8.42812 27.6052 8.42821 27.6053C7.97483 28.143 7.6438 28.5067 6.53613 29.6262L18.6762 41.7662C20.2881 40.5704 22.2366 39.9189 24.296 39.9189C24.3065 39.9188 26.3793 39.9195 26.3686 39.9195Z" fill="#17C64F"/>
<path d="M8.04194 23.4352C9.1063 21.9176 12.4415 17.0018 12.6639 16.7188C15.9166 12.5756 22.1044 13.234 24.6063 17.5502C25.8294 18.251 26.8168 19.2943 27.4501 20.5493C28.1678 20.9113 28.8157 21.3896 29.3704 21.9611C31.6766 20.3384 32.0058 16.8087 29.5443 14.8763C29.454 14.8054 26.1904 12.5746 26.0846 12.5022C22.8978 10.3234 21.5472 9.39966 20.3948 8.4283C20.3947 8.4283 20.3947 8.4283 20.3946 8.4284C19.6619 7.81077 19.0924 7.24714 18.3739 6.53613L6.2334 18.6766C7.264 20.0661 7.88697 21.7017 8.04194 23.4352Z" fill="#17C64F"/>
<path d="M43.6821 31.3853L31.6182 43.4491C32.5954 44.4266 33.8588 45.6919 35.5234 47.3564C36.0724 47.9055 36.9628 47.9057 37.5121 47.3564L47.5884 37.2801C48.1372 36.7315 48.1375 35.8405 47.5884 35.2914L43.6821 31.3853Z" fill="#17C64F"/>
<path d="M4.55052 31.6179C3.57429 32.5939 2.30931 33.857 0.643269 35.5231C0.0941708 36.0723 0.0941708 36.9626 0.643269 37.5118L10.7196 47.5882C11.2683 48.137 12.1592 48.1374 12.7083 47.5882C14.732 45.5644 15.9179 44.378 16.6142 43.6816L4.55052 31.6179Z" fill="#17C64F"/>
<path d="M4.31803 16.6149L16.3822 4.55074C15.4062 3.57461 14.1425 2.30925 12.4769 0.643583C11.9277 0.0942977 11.0373 0.0944853 10.4881 0.643583L0.411718 10.72C-0.137099 11.2686 -0.13738 12.1596 0.411718 12.7087L4.31803 16.6149Z" fill="#17C64F"/>
<path d="M43.4496 16.3821C44.4259 15.406 45.6909 14.143 47.3568 12.4769C47.9059 11.9277 47.9059 11.0374 47.3568 10.4882L37.2805 0.411753C36.7318 -0.137064 35.8409 -0.137439 35.2918 0.411753C33.2678 2.43574 32.0818 3.62206 31.3857 4.31825L43.4496 16.3821Z" fill="#17C64F"/>
</svg>
