<svg width="22" height="22" viewBox="0 0 22 22" fill="none" xmlns="http://www.w3.org/2000/svg">
<path d="M11.0245 5.34076C14.1114 5.34076 16.6592 7.88864 16.6592 10.9755C16.6592 14.1114 14.1114 16.6102 11.0245 16.6102C7.88864 16.6102 5.38976 14.1114 5.38976 10.9755C5.38976 7.88864 7.88864 5.34076 11.0245 5.34076ZM11.0245 14.6503C13.0334 14.6503 14.6503 13.0334 14.6503 10.9755C14.6503 8.96659 13.0334 7.34967 11.0245 7.34967C8.96659 7.34967 7.34967 8.96659 7.34967 10.9755C7.34967 13.0334 9.01559 14.6503 11.0245 14.6503ZM18.1782 5.14477C18.1782 5.87973 17.5902 6.46771 16.8552 6.46771C16.1203 6.46771 15.5323 5.87973 15.5323 5.14477C15.5323 4.4098 16.1203 3.82183 16.8552 3.82183C17.5902 3.82183 18.1782 4.4098 18.1782 5.14477ZM21.902 6.46771C22 8.28062 22 13.7194 21.902 15.5323C21.804 17.2962 21.412 18.8151 20.1381 20.1381C18.8641 21.412 17.2962 21.804 15.5323 21.902C13.7194 22 8.28062 22 6.46771 21.902C4.70379 21.804 3.18486 21.412 1.86192 20.1381C0.587973 18.8151 0.195991 17.2962 0.0979955 15.5323C0 13.7194 0 8.28062 0.0979955 6.46771C0.195991 4.70379 0.587973 3.13586 1.86192 1.86192C3.18486 0.587973 4.70379 0.195991 6.46771 0.0979955C8.28062 0 13.7194 0 15.5323 0.0979955C17.2962 0.195991 18.8641 0.587973 20.1381 1.86192C21.412 3.13586 21.804 4.70379 21.902 6.46771ZM19.5501 17.4432C20.1381 16.0223 19.9911 12.5924 19.9911 10.9755C19.9911 9.40757 20.1381 5.97773 19.5501 4.5078C19.1581 3.57684 18.4232 2.79287 17.4922 2.44989C16.0223 1.86192 12.5924 2.00891 11.0245 2.00891C9.40757 2.00891 5.97773 1.86192 4.55679 2.44989C3.57684 2.84187 2.84187 3.57684 2.44989 4.5078C1.86192 5.97773 2.00891 9.40757 2.00891 10.9755C2.00891 12.5924 1.86192 16.0223 2.44989 17.4432C2.84187 18.4232 3.57684 19.1581 4.55679 19.5501C5.97773 20.1381 9.40757 19.9911 11.0245 19.9911C12.5924 19.9911 16.0223 20.1381 17.4922 19.5501C18.4232 19.1581 19.2071 18.4232 19.5501 17.4432Z" fill="#9CA3AF"/>
</svg>
