<svg width="24" height="16" viewBox="0 0 24 16" fill="none" xmlns="http://www.w3.org/2000/svg">
<path d="M15.6875 5.96875C15.8125 5.875 16 5.96875 16 6.125V12.5C16 13.3438 15.3125 14 14.5 14H1.5C0.65625 14 0 13.3438 0 12.5V6.125C0 5.96875 0.15625 5.875 0.28125 5.96875C1 6.53125 1.90625 7.21875 5.09375 9.53125C5.75 10 6.875 11.0312 8 11.0312C9.09375 11.0312 10.25 10 10.875 9.53125C14.0625 7.21875 14.9688 6.53125 15.6875 5.96875ZM8 10C7.25 10.0312 6.21875 9.09375 5.6875 8.71875C1.53125 5.71875 1.21875 5.4375 0.28125 4.6875C0.09375 4.5625 0 4.34375 0 4.09375V3.5C0 2.6875 0.65625 2 1.5 2H14.5C15.3125 2 16 2.6875 16 3.5V4.09375C16 4.34375 15.875 4.5625 15.6875 4.6875C14.75 5.4375 14.4375 5.71875 10.2812 8.71875C9.75 9.09375 8.71875 10.0312 8 10Z" fill="#17C64F"/>
</svg>
