<svg width="48" height="49" viewBox="0 0 48 49" fill="none" xmlns="http://www.w3.org/2000/svg">
<path fill-rule="evenodd" clip-rule="evenodd" d="M31.7771 17.3794C32.0243 17.2754 32.2947 17.2395 32.5604 17.2755C32.8261 17.3115 33.0773 17.4181 33.2878 17.5841C33.4984 17.7501 33.6606 17.9695 33.7575 18.2195C33.8545 18.4695 33.8827 18.7409 33.8391 19.0054L31.5711 32.7624C31.3511 34.0894 29.8951 34.8504 28.6781 34.1894C27.6601 33.6364 26.1481 32.7844 24.7881 31.8954C24.1081 31.4504 22.0251 30.0254 22.2811 29.0114C22.5011 28.1444 26.0011 24.8864 28.0011 22.9494C28.7861 22.1884 28.4281 21.7494 27.5011 22.4494C25.1991 24.1874 21.5031 26.8304 20.2811 27.5744C19.2031 28.2304 18.6411 28.3424 17.9691 28.2304C16.7431 28.0264 15.6061 27.7104 14.6781 27.3254C13.4241 26.8054 13.4851 25.0814 14.6771 24.5794L31.7771 17.3794Z" fill="white"/>
</svg>
